<svg data-v-423bf9ae="" xmlns="http://www.w3.org/2000/svg" viewBox="0 0 372.22553917266913 60" class="font"><!----><!----><defs data-v-423bf9ae=""><linearGradient data-v-423bf9ae="" gradientTransform="rotate(25)" id="4f8a5e7a-9a4c-4e93-bb23-8950f894abe2" x1="0%" y1="0%" x2="100%" y2="0%"><stop data-v-423bf9ae="" offset="0%" style="stop-color: rgb(0, 118, 221); stop-opacity: 1;"></stop><stop data-v-423bf9ae="" offset="100%" style="stop-color: rgb(0, 205, 233); stop-opacity: 1;"></stop></linearGradient></defs><g data-v-423bf9ae="" id="38132a64-7c38-41c3-aadd-f90616e23252" fill="url(#4f8a5e7a-9a4c-4e93-bb23-8950f894abe2)" transform="matrix(5.934718302425701,0,0,5.934718302425701,-3.5014874361984596,-23.264096675128982)"><path d="M0.59 9.04C0.59 11.26 1.41 12.54 2.48 13.26C3.50 13.94 4.82 14.03 5.74 14.03C6.80 14.03 8.16 13.79 9.14 13.36L9.14 10.75C9.14 10.09 9.25 10.02 9.93 9.95L9.93 9.42L5.70 9.42L5.70 9.95C6.79 10.02 6.90 10.09 6.90 10.78L6.90 12.75C6.90 13.24 6.71 13.38 5.74 13.38C3.21 13.38 3.07 9.88 3.07 8.86C3.07 7.43 3.42 4.56 5.87 4.56C7.42 4.56 8.08 5.88 8.47 7.08L9.00 7.08L9.00 4.54C8.12 4.06 6.90 3.92 5.80 3.92C1.32 3.92 0.59 7.11 0.59 9.04ZM12.89 11.72C12.89 11.06 13.12 10.74 13.54 10.50C13.97 10.26 14.46 10.07 14.80 9.91L14.80 11.94C14.77 12.70 14.31 12.89 13.93 12.89C13.38 12.89 12.89 12.46 12.89 11.72ZM10.74 11.96C10.74 13.01 11.44 13.99 12.85 13.99C13.75 13.99 14.36 13.50 14.85 13.17C15.04 13.61 15.27 13.99 15.95 13.99C16.67 13.99 17.56 13.75 18.02 13.57L17.98 13.10C17.79 13.12 17.51 13.10 17.30 13.03C17.12 12.98 16.86 12.81 16.86 11.98L16.86 8.75C16.86 7.88 16.72 6.79 14.24 6.79C12.18 6.79 10.92 7.60 10.92 8.51C10.92 9.14 11.82 9.39 12.18 9.39C12.49 9.39 12.64 9.17 12.75 8.83C13.15 7.64 13.59 7.43 13.99 7.43C14.39 7.43 14.80 7.67 14.80 8.47L14.80 9.21C14.31 9.55 13.13 9.90 12.22 10.21C11.12 10.58 10.74 11.16 10.74 11.96ZM18.14 13.82L21.91 13.82L21.91 13.29L21.62 13.26C21.32 13.23 21.17 13.16 21.17 12.70L21.17 9.48C21.17 8.26 21.84 7.87 22.47 7.87C23.16 7.87 23.48 8.44 23.48 9.21L23.48 12.70C23.48 13.16 23.32 13.23 23.03 13.26L22.74 13.29L22.74 13.82L26.33 13.82L26.33 13.29L26.04 13.26C25.75 13.23 25.59 13.16 25.59 12.70L25.59 9.48C25.59 8.26 26.22 7.87 26.85 7.87C27.54 7.87 27.90 8.44 27.90 9.21L27.90 12.70C27.90 13.16 27.75 13.23 27.45 13.26L27.16 13.29L27.16 13.82L30.93 13.82L30.93 13.29C30.13 13.24 30.02 13.19 30.02 12.60L30.02 8.96C30.02 7.66 29.32 6.79 27.83 6.79C26.87 6.79 26.00 7.46 25.40 7.84C25.12 7.34 24.54 6.79 23.49 6.79C22.58 6.79 21.94 7.27 21.17 7.76L20.99 6.79L18.23 7.20L18.23 7.70L18.72 7.77C18.94 7.80 19.05 7.92 19.05 8.48L19.05 12.60C19.05 13.19 18.94 13.24 18.14 13.29ZM33.75 9.62C33.75 8.61 34.02 7.43 34.93 7.43C35.78 7.43 35.92 8.50 35.92 9.16C35.92 9.53 35.81 9.62 35.49 9.62ZM31.53 10.39C31.53 12.29 32.35 13.99 34.96 13.99C36.62 13.99 37.53 13.17 38.01 11.94L37.51 11.66C37.09 12.46 36.48 12.91 35.63 12.91C34.23 12.91 33.75 11.76 33.75 10.29L37.37 10.29C37.87 10.29 38.12 10.15 38.12 9.70C38.12 8.55 37.69 6.79 34.99 6.79C32.47 6.79 31.53 8.43 31.53 10.39ZM45.07 8.37L45.07 5.29C45.07 4.82 45.32 4.77 45.88 4.77C47.14 4.77 47.64 5.52 47.64 6.57C47.64 7.60 47.10 8.37 45.75 8.37ZM45.07 12.26L45.07 9.02L45.78 9.02C47.18 9.02 47.84 10.01 47.84 11.19C47.84 12.68 47.05 13.17 46.07 13.17C45.37 13.17 45.07 12.95 45.07 12.26ZM41.72 13.82L46.34 13.82C47.94 13.82 48.90 13.54 49.49 13.06C50.06 12.60 50.29 11.93 50.29 11.17C50.29 9.62 49.14 8.85 47.84 8.65L47.84 8.62C49.21 8.33 49.91 7.60 49.91 6.45C49.91 4.75 48.55 4.13 46.34 4.13L41.72 4.13L41.72 4.66C42.71 4.70 42.83 4.77 42.83 5.49L42.83 12.46C42.83 13.17 42.71 13.24 41.72 13.29ZM53.52 9.62C53.52 8.61 53.79 7.43 54.70 7.43C55.55 7.43 55.69 8.50 55.69 9.16C55.69 9.53 55.58 9.62 55.26 9.62ZM51.30 10.39C51.30 12.29 52.12 13.99 54.73 13.99C56.39 13.99 57.30 13.17 57.78 11.94L57.27 11.66C56.85 12.46 56.25 12.91 55.40 12.91C54.00 12.91 53.52 11.76 53.52 10.29L57.13 10.29C57.64 10.29 57.89 10.15 57.89 9.70C57.89 8.55 57.46 6.79 54.75 6.79C52.23 6.79 51.30 8.43 51.30 10.39ZM58.53 7.66L59.35 7.66L59.35 12.18C59.35 13.45 60.30 13.99 61.08 13.99C61.66 13.99 62.52 13.72 63.31 13.23L63.15 12.80C62.96 12.88 62.66 12.94 62.36 12.94C61.82 12.94 61.46 12.54 61.46 11.65L61.46 7.66L62.92 7.66L62.92 6.96L61.46 6.96L61.46 5.19L60.65 5.19L59.42 6.96L58.53 6.96Z"></path></g><!----><!----></svg>